<svg width="116" height="48" viewBox="0 0 116 48" fill="none" xmlns="http://www.w3.org/2000/svg">
<g filter="url(#filter0_d_1_31)">
<rect x="2" y="1" width="112" height="44" rx="8" fill="#8E2424"/>
<path d="M30.9432 21.1477H29.1705C29.1023 20.7689 28.9754 20.4356 28.7898 20.1477C28.6042 19.8598 28.3769 19.6155 28.108 19.4148C27.839 19.214 27.5379 19.0625 27.2045 18.9602C26.875 18.858 26.5246 18.8068 26.1534 18.8068C25.483 18.8068 24.8826 18.9754 24.3523 19.3125C23.8258 19.6496 23.4091 20.1439 23.1023 20.7955C22.7992 21.447 22.6477 22.2424 22.6477 23.1818C22.6477 24.1288 22.7992 24.928 23.1023 25.5795C23.4091 26.2311 23.8277 26.7235 24.358 27.0568C24.8883 27.3902 25.4848 27.5568 26.1477 27.5568C26.5152 27.5568 26.8636 27.5076 27.1932 27.4091C27.5265 27.3068 27.8277 27.1572 28.0966 26.9602C28.3655 26.7633 28.5928 26.5227 28.7784 26.2386C28.9678 25.9508 29.0985 25.6212 29.1705 25.25L30.9432 25.2557C30.8485 25.8277 30.6648 26.3542 30.392 26.8352C30.1231 27.3125 29.7765 27.7254 29.3523 28.0739C28.9318 28.4186 28.4508 28.6856 27.9091 28.875C27.3674 29.0644 26.7765 29.1591 26.1364 29.1591C25.1288 29.1591 24.2311 28.9205 23.4432 28.4432C22.6553 27.9621 22.0341 27.2746 21.5795 26.3807C21.1288 25.4867 20.9034 24.4205 20.9034 23.1818C20.9034 21.9394 21.1307 20.8731 21.5852 19.983C22.0398 19.089 22.661 18.4034 23.4489 17.9261C24.2367 17.4451 25.1326 17.2045 26.1364 17.2045C26.7538 17.2045 27.3295 17.2936 27.8636 17.4716C28.4015 17.6458 28.8845 17.9034 29.3125 18.2443C29.7405 18.5814 30.0947 18.9943 30.375 19.483C30.6553 19.9678 30.8447 20.5227 30.9432 21.1477ZM35.4474 29.1932C34.8944 29.1932 34.3944 29.0909 33.9474 28.8864C33.5005 28.678 33.1463 28.3769 32.8849 27.983C32.6274 27.589 32.4986 27.1061 32.4986 26.5341C32.4986 26.0417 32.5933 25.6364 32.7827 25.3182C32.9721 25 33.2277 24.7481 33.5497 24.5625C33.8717 24.3769 34.2315 24.2367 34.6293 24.142C35.027 24.0473 35.4323 23.9754 35.8452 23.9261C36.3679 23.8655 36.7921 23.8163 37.1179 23.7784C37.4437 23.7367 37.6804 23.6705 37.8281 23.5795C37.9759 23.4886 38.0497 23.3409 38.0497 23.1364V23.0966C38.0497 22.6004 37.9096 22.2159 37.6293 21.9432C37.3527 21.6705 36.9399 21.5341 36.3906 21.5341C35.8187 21.5341 35.3679 21.661 35.0384 21.9148C34.7126 22.1648 34.4872 22.4432 34.3622 22.75L32.7656 22.3864C32.955 21.8561 33.2315 21.428 33.5952 21.1023C33.9626 20.7727 34.3849 20.5341 34.8622 20.3864C35.3395 20.2348 35.8414 20.1591 36.3679 20.1591C36.7164 20.1591 37.0857 20.2008 37.4759 20.2841C37.8698 20.3636 38.2372 20.5114 38.5781 20.7273C38.9228 20.9432 39.205 21.2519 39.4247 21.6534C39.6444 22.0511 39.7543 22.5682 39.7543 23.2045V29H38.0952V27.8068H38.027C37.9171 28.0265 37.7524 28.2424 37.5327 28.4545C37.313 28.6667 37.0308 28.8428 36.6861 28.983C36.3414 29.1231 35.9285 29.1932 35.4474 29.1932ZM35.8168 27.8295C36.2865 27.8295 36.688 27.7367 37.0213 27.5511C37.3584 27.3655 37.6141 27.1231 37.7884 26.8239C37.9664 26.5208 38.0554 26.197 38.0554 25.8523V24.7273C37.9948 24.7879 37.8774 24.8447 37.7031 24.8977C37.5327 24.947 37.3376 24.9905 37.1179 25.0284C36.8982 25.0625 36.6842 25.0947 36.4759 25.125C36.2675 25.1515 36.0933 25.1742 35.9531 25.1932C35.6236 25.2348 35.3224 25.3049 35.0497 25.4034C34.7808 25.5019 34.5649 25.6439 34.402 25.8295C34.2429 26.0114 34.1634 26.2538 34.1634 26.5568C34.1634 26.9773 34.3187 27.2955 34.6293 27.5114C34.9399 27.7235 35.3357 27.8295 35.8168 27.8295ZM45.2841 29.1705C44.5795 29.1705 43.9508 28.9905 43.3977 28.6307C42.8485 28.267 42.4167 27.75 42.1023 27.0795C41.7917 26.4053 41.6364 25.5966 41.6364 24.6534C41.6364 23.7102 41.7936 22.9034 42.108 22.233C42.4261 21.5625 42.8617 21.0492 43.4148 20.6932C43.9678 20.3371 44.5947 20.1591 45.2955 20.1591C45.8371 20.1591 46.2727 20.25 46.6023 20.4318C46.9356 20.6098 47.1932 20.8182 47.375 21.0568C47.5606 21.2955 47.7045 21.5057 47.8068 21.6875H47.9091V17.3636H49.608V29H47.9489V27.642H47.8068C47.7045 27.8277 47.5568 28.0398 47.3636 28.2784C47.1742 28.517 46.9129 28.7254 46.5795 28.9034C46.2462 29.0814 45.8144 29.1705 45.2841 29.1705ZM45.6591 27.7216C46.1477 27.7216 46.5606 27.5928 46.8977 27.3352C47.2386 27.0739 47.4962 26.7121 47.6705 26.25C47.8485 25.7879 47.9375 25.25 47.9375 24.6364C47.9375 24.0303 47.8504 23.5 47.6761 23.0455C47.5019 22.5909 47.2462 22.2367 46.9091 21.983C46.572 21.7292 46.1553 21.6023 45.6591 21.6023C45.1477 21.6023 44.7216 21.7348 44.3807 22C44.0398 22.2652 43.7822 22.6269 43.608 23.0852C43.4375 23.5436 43.3523 24.0606 43.3523 24.6364C43.3523 25.2197 43.4394 25.7443 43.6136 26.2102C43.7879 26.6761 44.0455 27.0455 44.3864 27.3182C44.7311 27.5871 45.1553 27.7216 45.6591 27.7216ZM54.5724 29.1932C54.0194 29.1932 53.5194 29.0909 53.0724 28.8864C52.6255 28.678 52.2713 28.3769 52.0099 27.983C51.7524 27.589 51.6236 27.1061 51.6236 26.5341C51.6236 26.0417 51.7183 25.6364 51.9077 25.3182C52.0971 25 52.3527 24.7481 52.6747 24.5625C52.9967 24.3769 53.3565 24.2367 53.7543 24.142C54.152 24.0473 54.5573 23.9754 54.9702 23.9261C55.4929 23.8655 55.9171 23.8163 56.2429 23.7784C56.5687 23.7367 56.8054 23.6705 56.9531 23.5795C57.1009 23.4886 57.1747 23.3409 57.1747 23.1364V23.0966C57.1747 22.6004 57.0346 22.2159 56.7543 21.9432C56.4777 21.6705 56.0649 21.5341 55.5156 21.5341C54.9437 21.5341 54.4929 21.661 54.1634 21.9148C53.8376 22.1648 53.6122 22.4432 53.4872 22.75L51.8906 22.3864C52.08 21.8561 52.3565 21.428 52.7202 21.1023C53.0876 20.7727 53.5099 20.5341 53.9872 20.3864C54.4645 20.2348 54.9664 20.1591 55.4929 20.1591C55.8414 20.1591 56.2107 20.2008 56.6009 20.2841C56.9948 20.3636 57.3622 20.5114 57.7031 20.7273C58.0478 20.9432 58.33 21.2519 58.5497 21.6534C58.7694 22.0511 58.8793 22.5682 58.8793 23.2045V29H57.2202V27.8068H57.152C57.0421 28.0265 56.8774 28.2424 56.6577 28.4545C56.438 28.6667 56.1558 28.8428 55.8111 28.983C55.4664 29.1231 55.0535 29.1932 54.5724 29.1932ZM54.9418 27.8295C55.4115 27.8295 55.813 27.7367 56.1463 27.5511C56.4834 27.3655 56.7391 27.1231 56.9134 26.8239C57.0914 26.5208 57.1804 26.197 57.1804 25.8523V24.7273C57.1198 24.7879 57.0024 24.8447 56.8281 24.8977C56.6577 24.947 56.4626 24.9905 56.2429 25.0284C56.0232 25.0625 55.8092 25.0947 55.6009 25.125C55.3925 25.1515 55.2183 25.1742 55.0781 25.1932C54.7486 25.2348 54.4474 25.3049 54.1747 25.4034C53.9058 25.5019 53.6899 25.6439 53.527 25.8295C53.3679 26.0114 53.2884 26.2538 53.2884 26.5568C53.2884 26.9773 53.4437 27.2955 53.7543 27.5114C54.0649 27.7235 54.4607 27.8295 54.9418 27.8295ZM67.6818 22.4034L66.142 22.6761C66.0777 22.4792 65.9754 22.2917 65.8352 22.1136C65.6989 21.9356 65.5133 21.7898 65.2784 21.6761C65.0436 21.5625 64.75 21.5057 64.3977 21.5057C63.9167 21.5057 63.5152 21.6136 63.1932 21.8295C62.8712 22.0417 62.7102 22.3163 62.7102 22.6534C62.7102 22.9451 62.8182 23.1799 63.0341 23.358C63.25 23.536 63.5985 23.6818 64.0795 23.7955L65.4659 24.1136C66.2689 24.2992 66.8674 24.5852 67.2614 24.9716C67.6553 25.358 67.8523 25.8598 67.8523 26.4773C67.8523 27 67.7008 27.4659 67.3977 27.875C67.0985 28.2803 66.6799 28.5985 66.142 28.8295C65.608 29.0606 64.9886 29.1761 64.2841 29.1761C63.3068 29.1761 62.5095 28.9678 61.892 28.5511C61.2746 28.1307 60.8958 27.5341 60.7557 26.7614L62.3977 26.5114C62.5 26.9394 62.7102 27.2633 63.0284 27.483C63.3466 27.6989 63.7614 27.8068 64.2727 27.8068C64.8295 27.8068 65.2746 27.6913 65.608 27.4602C65.9413 27.2254 66.108 26.9394 66.108 26.6023C66.108 26.3295 66.0057 26.1004 65.8011 25.9148C65.6004 25.7292 65.2917 25.589 64.875 25.4943L63.3977 25.1705C62.5833 24.9848 61.9811 24.6894 61.5909 24.2841C61.2045 23.8788 61.0114 23.3655 61.0114 22.7443C61.0114 22.2292 61.1553 21.7784 61.4432 21.392C61.7311 21.0057 62.1288 20.7045 62.6364 20.4886C63.1439 20.2689 63.7254 20.1591 64.3807 20.1591C65.3239 20.1591 66.0663 20.3636 66.608 20.7727C67.1496 21.178 67.5076 21.7216 67.6818 22.4034ZM73.794 20.2727V21.6364H69.027V20.2727H73.794ZM70.3054 18.1818H72.0043V26.4375C72.0043 26.767 72.0535 27.0152 72.152 27.1818C72.2505 27.3447 72.3774 27.4564 72.5327 27.517C72.6918 27.5739 72.8641 27.6023 73.0497 27.6023C73.1861 27.6023 73.3054 27.5928 73.4077 27.5739C73.5099 27.5549 73.5895 27.5398 73.6463 27.5284L73.9531 28.9318C73.8546 28.9697 73.7145 29.0076 73.5327 29.0455C73.3509 29.0871 73.1236 29.1098 72.8509 29.1136C72.4039 29.1212 71.9872 29.0417 71.6009 28.875C71.2145 28.7083 70.902 28.4508 70.6634 28.1023C70.4247 27.7538 70.3054 27.3163 70.3054 26.7898V18.1818ZM75.6733 29V20.2727H77.3153V21.6591H77.4062C77.5653 21.1894 77.8456 20.8201 78.2472 20.5511C78.6525 20.2784 79.1108 20.142 79.6222 20.142C79.7282 20.142 79.8532 20.1458 79.9972 20.1534C80.1449 20.161 80.2604 20.1705 80.3438 20.1818V21.8068C80.2756 21.7879 80.1544 21.767 79.9801 21.7443C79.8059 21.7178 79.6316 21.7045 79.4574 21.7045C79.0559 21.7045 78.6979 21.7898 78.3835 21.9602C78.0729 22.1269 77.8267 22.3598 77.6449 22.6591C77.4631 22.9545 77.3722 23.2917 77.3722 23.6705V29H75.6733ZM84.2756 29.1932C83.7225 29.1932 83.2225 29.0909 82.7756 28.8864C82.3286 28.678 81.9744 28.3769 81.7131 27.983C81.4555 27.589 81.3267 27.1061 81.3267 26.5341C81.3267 26.0417 81.4214 25.6364 81.6108 25.3182C81.8002 25 82.0559 24.7481 82.3778 24.5625C82.6998 24.3769 83.0597 24.2367 83.4574 24.142C83.8551 24.0473 84.2604 23.9754 84.6733 23.9261C85.196 23.8655 85.6203 23.8163 85.946 23.7784C86.2718 23.7367 86.5085 23.6705 86.6562 23.5795C86.804 23.4886 86.8778 23.3409 86.8778 23.1364V23.0966C86.8778 22.6004 86.7377 22.2159 86.4574 21.9432C86.1809 21.6705 85.768 21.5341 85.2188 21.5341C84.6468 21.5341 84.196 21.661 83.8665 21.9148C83.5407 22.1648 83.3153 22.4432 83.1903 22.75L81.5938 22.3864C81.7831 21.8561 82.0597 21.428 82.4233 21.1023C82.7907 20.7727 83.2131 20.5341 83.6903 20.3864C84.1676 20.2348 84.6695 20.1591 85.196 20.1591C85.5445 20.1591 85.9138 20.2008 86.304 20.2841C86.6979 20.3636 87.0653 20.5114 87.4062 20.7273C87.7509 20.9432 88.0331 21.2519 88.2528 21.6534C88.4725 22.0511 88.5824 22.5682 88.5824 23.2045V29H86.9233V27.8068H86.8551C86.7453 28.0265 86.5805 28.2424 86.3608 28.4545C86.1411 28.6667 85.8589 28.8428 85.5142 28.983C85.1695 29.1231 84.7566 29.1932 84.2756 29.1932ZM84.6449 27.8295C85.1146 27.8295 85.5161 27.7367 85.8494 27.5511C86.1866 27.3655 86.4422 27.1231 86.6165 26.8239C86.7945 26.5208 86.8835 26.197 86.8835 25.8523V24.7273C86.8229 24.7879 86.7055 24.8447 86.5312 24.8977C86.3608 24.947 86.1657 24.9905 85.946 25.0284C85.7263 25.0625 85.5123 25.0947 85.304 25.125C85.0956 25.1515 84.9214 25.1742 84.7812 25.1932C84.4517 25.2348 84.1506 25.3049 83.8778 25.4034C83.6089 25.5019 83.393 25.6439 83.2301 25.8295C83.071 26.0114 82.9915 26.2538 82.9915 26.5568C82.9915 26.9773 83.1468 27.2955 83.4574 27.5114C83.768 27.7235 84.1638 27.8295 84.6449 27.8295ZM90.8452 29V20.2727H92.4872V21.6591H92.5781C92.7372 21.1894 93.0175 20.8201 93.419 20.5511C93.8243 20.2784 94.2827 20.142 94.794 20.142C94.9001 20.142 95.0251 20.1458 95.169 20.1534C95.3168 20.161 95.4323 20.1705 95.5156 20.1818V21.8068C95.4474 21.7879 95.3262 21.767 95.152 21.7443C94.9777 21.7178 94.8035 21.7045 94.6293 21.7045C94.2277 21.7045 93.8698 21.7898 93.5554 21.9602C93.2448 22.1269 92.9986 22.3598 92.8168 22.6591C92.6349 22.9545 92.544 23.2917 92.544 23.6705V29H90.8452Z" fill="white"/>
<rect x="2.5" y="1.5" width="111" height="43" rx="7.5" stroke="#8E2424"/>
</g>
<defs>
<filter id="filter0_d_1_31" x="0" y="0" width="116" height="48" filterUnits="userSpaceOnUse" color-interpolation-filters="sRGB">
<feFlood flood-opacity="0" result="BackgroundImageFix"/>
<feColorMatrix in="SourceAlpha" type="matrix" values="0 0 0 0 0 0 0 0 0 0 0 0 0 0 0 0 0 0 127 0" result="hardAlpha"/>
<feOffset dy="1"/>
<feGaussianBlur stdDeviation="1"/>
<feColorMatrix type="matrix" values="0 0 0 0 0.0627451 0 0 0 0 0.0941176 0 0 0 0 0.156863 0 0 0 0.05 0"/>
<feBlend mode="normal" in2="BackgroundImageFix" result="effect1_dropShadow_1_31"/>
<feBlend mode="normal" in="SourceGraphic" in2="effect1_dropShadow_1_31" result="shape"/>
</filter>
</defs>
</svg>
